# xmcd CD database file
#
# Track frame offsets:
#	150
#	21337
#	42433
#	64219
#	88304
#	107800
#	129717
#	151764
#	172380
#	193300
#	214294
#	236664
#	257292
#
# Disc length: 3763 seconds
#
# Revision: 0
# Processed by: cddbd v1.5.2PL0 Copyright (c) Steve Scherf et al.
# Submitted via: CDex 1.70beta2
#
DISCID=c40eb10d
DTITLE=雷婷婷 - 做你的愛人
DYEAR=1900
DGENRE=New Age
TTITLE0=今生最愛
TTITLE1=做你的愛人
TTITLE2=移情別戀
TTITLE3=我是真的愛你
TTITLE4=不要用我的愛來傷害我
TTITLE5=摘下满天星
TTITLE6=你是我一生最愛的人
TTITLE7=最浪漫的事
TTITLE8=愛情的故事
TTITLE9=甘心情願
TTITLE10=不該讓你等太久
TTITLE11=天長地久
TTITLE12=太傻
EXTD=
EXTT0=
EXTT1=
EXTT2=
EXTT3=
EXTT4=
EXTT5=
EXTT6=
EXTT7=
EXTT8=
EXTT9=
EXTT10=
EXTT11=
EXTT12=
PLAYORDER=
